<svg width="64" height="64" viewBox="0 0 64 64" fill="none" xmlns="http://www.w3.org/2000/svg">
<path d="M31.9258 19.999C33.5906 20.0131 35.235 20.3705 36.7559 21.0479C38.2766 21.7252 39.6415 22.7085 40.7656 23.9365V19.999H48.7881C51.2391 20.0147 53.5843 21.0011 55.3105 22.7412C57.0367 24.4813 58.004 26.8341 58 29.2852C58 31.7477 57.0215 34.1092 55.2803 35.8506C53.5389 37.592 51.1766 38.5703 48.7139 38.5703V43.6221H40.6914V39.6846C39.5875 40.9375 38.2266 41.9387 36.7012 42.6182C35.1757 43.2976 33.5214 43.6397 31.8516 43.6221H24.2744V38.5703H18.3311L15.3604 43.6221H6L19.7432 19.999H31.9258ZM51.3955 40.6797C51.6836 40.6224 51.9825 40.6514 52.2539 40.7637C52.5252 40.8761 52.7577 41.0664 52.9209 41.3105C53.0842 41.5549 53.1719 41.8429 53.1719 42.1367C53.1718 42.5305 53.0147 42.908 52.7363 43.1865C52.4577 43.4651 52.0796 43.6221 51.6855 43.6221C51.3918 43.622 51.1046 43.5352 50.8604 43.3721C50.6161 43.2089 50.4259 42.9765 50.3135 42.7051C50.201 42.4336 50.1712 42.1348 50.2285 41.8467C50.2858 41.5586 50.4271 41.2937 50.6348 41.0859C50.8424 40.8783 51.1075 40.7371 51.3955 40.6797ZM51.6855 40.9482C51.4505 40.9483 51.2208 41.0179 51.0254 41.1484C50.83 41.279 50.6778 41.4645 50.5879 41.6816C50.4979 41.8988 50.4746 42.1376 50.5205 42.3682C50.5664 42.5987 50.6795 42.8103 50.8457 42.9766C51.0119 43.1428 51.2236 43.2559 51.4541 43.3018C51.6846 43.3476 51.9235 43.3243 52.1406 43.2344C52.3577 43.1444 52.5432 42.9922 52.6738 42.7969C52.8044 42.6015 52.874 42.3717 52.874 42.1367C52.876 41.9801 52.8471 41.8238 52.7881 41.6787C52.7291 41.5337 52.641 41.4017 52.5303 41.291C52.4196 41.1804 52.2875 41.0931 52.1426 41.0342C51.9976 40.9752 51.8421 40.9462 51.6855 40.9482ZM51.7598 41.2451C51.8976 41.2476 52.0303 41.3004 52.1318 41.3936C52.1857 41.4527 52.2212 41.5265 52.2344 41.6055C52.2475 41.6844 52.2378 41.7655 52.2061 41.8389C52.2172 41.9436 52.1909 42.0496 52.1318 42.1367C52.0575 42.211 51.9825 42.2852 51.9082 42.2852L52.3545 43.0273H52.0566L51.6855 42.3594H51.3887V43.0273H51.166V41.2451H51.7598ZM51.4629 41.4678V42.0625H51.7598C51.8386 42.0625 51.914 42.0303 51.9697 41.9746C52.0254 41.9189 52.0566 41.8434 52.0566 41.7646C52.0566 41.6859 52.0254 41.6103 51.9697 41.5547C51.914 41.4991 51.8385 41.4678 51.7598 41.4678H51.4629ZM11.2002 40.6504H13.6514L16.623 35.5996H27.2461V40.6504H31.9258C33.604 40.6545 35.2488 40.1822 36.6689 39.2881C38.0891 38.3939 39.2265 37.1147 39.9482 35.5996H43.7373V40.6504H45.8174V35.5996H48.7881C49.6176 35.6006 50.4395 35.4371 51.2061 35.1201C51.9725 34.8031 52.6694 34.3384 53.2559 33.752C53.8423 33.1655 54.3071 32.4686 54.624 31.7021C54.9409 30.9358 55.1035 30.1145 55.1025 29.2852C55.0869 27.6026 54.4066 25.9944 53.21 24.8115C52.0131 23.6286 50.3966 22.9667 48.7139 22.9707H43.6631V30.5479H40.6914C40.3728 28.4476 39.3141 26.5298 37.707 25.1406C36.1 23.7517 34.0499 22.9821 31.9258 22.9707H21.5254L11.2002 40.6504ZM31.9258 25.0508C33.7168 25.0567 35.4328 25.7707 36.6992 27.0371C37.9657 28.3035 38.6796 30.0195 38.6855 31.8105C38.6797 33.6015 37.9656 35.3175 36.6992 36.584C35.4328 37.8504 33.7168 38.5644 31.9258 38.5703H29.3262V35.5996H31.9258C32.9305 35.5996 33.894 35.1997 34.6045 34.4893C35.3149 33.7788 35.7139 32.8153 35.7139 31.8105C35.7138 30.8058 35.315 29.8423 34.6045 29.1318C33.894 28.4214 32.9305 28.0225 31.9258 28.0225H29.3262V25.0508H31.9258ZM27.2461 33.5195H17.8857L19.5947 30.5479H24.2744V25.0508H27.2461V33.5195ZM48.7139 25.0508C49.8332 25.0624 50.9037 25.5122 51.6953 26.3037C52.4869 27.0953 52.9366 28.1658 52.9482 29.2852C52.9482 30.4081 52.502 31.4853 51.708 32.2793C50.914 33.0732 49.8367 33.5195 48.7139 33.5195H45.7432V30.5479H48.7139C49.0457 30.5385 49.3619 30.4026 49.5967 30.168C49.8315 29.9332 49.9681 29.6171 49.9775 29.2852C49.9785 29.1191 49.9459 28.9544 49.8828 28.8008C49.8197 28.6471 49.7268 28.5071 49.6094 28.3896C49.4919 28.2722 49.3519 28.1793 49.1982 28.1162C49.0447 28.0532 48.8798 28.0215 48.7139 28.0225H45.7432V25.0508H48.7139Z" fill="#D0271D"/>
</svg>
