<svg width="64" height="64" viewBox="0 0 64 64" fill="none" xmlns="http://www.w3.org/2000/svg">
<path d="M45.2212 37.7425C45.3528 37.9624 45.3982 38.2235 45.3484 38.475C44.8837 40.593 43.7529 42.5052 42.1229 43.93C42.0335 43.9979 41.9583 44.0827 41.9016 44.1796C41.8812 44.2241 41.8707 44.2723 41.8707 44.3211C41.8707 44.3701 41.8812 44.4183 41.9016 44.4626C41.9341 44.5006 41.9751 44.5305 42.0212 44.5497C42.0674 44.569 42.1173 44.5772 42.1672 44.5737C42.4032 44.5106 42.6314 44.4212 42.8476 44.3073C43.8037 43.7626 44.6484 43.0415 45.3373 42.1819C45.7523 41.677 46.1617 41.1719 46.5545 40.6503C47.2943 39.62 47.8417 38.4637 48.1702 37.2375C48.4688 36.2443 48.7233 35.2398 49.0332 34.2465C49.1598 33.8823 49.3133 33.528 49.4925 33.1867C49.5645 33.0815 49.648 32.9847 49.7414 32.8981H49.8189C49.8963 33.1588 49.9904 33.4086 50.0457 33.675C50.1904 34.5126 50.2109 35.3672 50.1066 36.211C49.9918 37.3091 49.7675 38.3928 49.4371 39.4461C49.2057 40.0935 48.8934 40.7088 48.5077 41.2773C47.5381 42.8801 46.3931 44.3691 45.0939 45.7168C44.1368 46.6438 43.1021 47.4867 42.0011 48.2362C41.9209 48.2774 41.8479 48.3318 41.7854 48.3971C41.721 48.4748 41.6875 48.5735 41.6914 48.6746C41.7145 48.7197 41.7482 48.7583 41.7896 48.7874C41.8311 48.8165 41.879 48.8348 41.9292 48.841C42.1606 48.8395 42.3911 48.8098 42.6152 48.7522C43.6375 48.4567 44.5936 47.9669 45.4314 47.3094C47.7747 45.5766 49.6778 43.3143 50.9862 40.7058C51.82 39.0039 52.3606 37.1727 52.5852 35.2897C52.7198 34.1011 52.7328 32.9018 52.624 31.7105C52.529 31.1001 52.5477 30.4772 52.6792 29.8737C52.7141 29.7354 52.7642 29.6013 52.8286 29.4741C52.978 29.1855 53.1938 29.1689 53.3376 29.4741C53.4889 29.763 53.6006 30.071 53.6696 30.3898C53.9733 31.9162 54.0683 33.4769 53.9518 35.0289C53.737 37.5505 53.105 40.0185 52.0817 42.3317C51.0454 44.7135 49.4893 46.8317 47.5283 48.5302C46.892 49.0852 46.2835 49.6401 45.6251 50.1618C44.8343 50.7384 43.9872 51.2331 43.0966 51.6378C41.1318 52.6169 39.0406 53.3173 36.8834 53.7187C35.5612 53.9489 34.2186 54.0383 32.8777 53.9851C32.2194 53.9851 31.5554 53.9408 30.8971 53.9075C29.4086 53.8248 27.94 53.5257 26.5372 53.0195C24.5059 52.3106 22.5534 51.3918 20.7113 50.2783C18.563 48.9571 16.7308 47.1782 15.3446 45.0675C14.6603 44.0749 14.0641 43.0239 13.5631 41.9266C13.5375 41.8615 13.4964 41.8036 13.4434 41.7581C13.3903 41.7127 13.3269 41.6809 13.2588 41.6659C12.8949 41.5751 12.5565 41.4025 12.2689 41.1612C11.9813 40.9199 11.7523 40.6161 11.5989 40.273C11.1887 39.2681 10.8702 38.2281 10.6473 37.1654C10.2419 35.45 10.0248 33.6953 10 31.9325C10.0166 30.8164 10.1183 29.7033 10.3043 28.6029C10.5143 27.1077 10.8853 25.6397 11.4108 24.2246C11.8756 22.9862 12.5288 21.8274 13.3473 20.7896C13.8231 20.1903 14.2159 19.5188 14.6807 18.9084C17.6302 14.9984 21.8532 12.2493 26.6147 11.1395C27.5331 10.9175 28.4516 10.6844 29.3811 10.5124C30.2109 10.357 31.0409 10.2571 31.8928 10.1794C32.8777 10.0907 33.8625 10.013 34.8529 10.0019C38.826 9.94637 42.7182 11.1313 45.9903 13.3925C46.3632 13.6187 46.6992 13.9013 46.9861 14.2304C47.1981 14.4894 47.3391 14.7992 47.3956 15.1294C47.4174 15.2071 47.4617 15.2765 47.5228 15.3291C48.3029 16.0838 49.1329 16.7997 49.8521 17.6099C50.9951 18.8624 51.8223 20.3713 52.2644 22.0104C52.4669 22.6724 52.5375 23.368 52.472 24.0573C52.4064 24.7467 52.2061 25.4164 51.8826 26.0281C51.3414 26.9418 50.5805 27.705 49.6695 28.2478C48.656 28.9394 47.4401 29.2697 46.2171 29.1855C45.0737 29.1332 43.9884 28.6658 43.1631 27.8704C42.2959 26.9666 41.3719 26.1195 40.3967 25.3344C39.7549 24.846 39.0909 24.3855 38.4215 23.9471C37.6122 23.4593 36.7157 23.1351 35.7824 22.9926C34.7208 22.7979 33.6396 22.7327 32.5623 22.7984C30.2074 22.8434 27.9288 23.6448 26.0614 25.0847C24.662 26.1452 23.5102 27.4993 22.6865 29.0524C22.22 29.9948 21.9258 31.0136 21.8179 32.0601C21.7278 32.7057 21.6761 33.3561 21.6629 34.0079C21.7151 35.8658 22.1982 37.686 23.0738 39.324C23.7207 40.5947 24.5817 41.7436 25.6188 42.7203C26.5834 43.5896 27.652 44.3352 28.8002 44.9398C30.1069 45.6504 31.55 46.0722 33.0327 46.1774C34.9796 46.3813 36.9463 46.0853 38.7479 45.3173C39.6114 44.9101 40.4065 44.371 41.1048 43.719C42.311 42.6786 43.3227 41.4307 44.0925 40.0343C44.3803 39.5294 44.5794 38.9744 44.8229 38.4418C44.8948 38.2808 44.9777 38.1199 45.0607 37.9646C45.1114 37.8892 45.1709 37.8203 45.2378 37.7592" fill="#171A1B"/>
</svg>
