<svg width="64" height="64" viewBox="0 0 64 64" fill="none" xmlns="http://www.w3.org/2000/svg">
<path fill-rule="evenodd" clip-rule="evenodd" d="M58 32C58 46.3593 46.3594 58 32 58C17.6406 58 6 46.3593 6 32C6 17.6406 17.6406 6 32 6C46.3594 6 58 17.6406 58 32ZM36.6697 27.4733C33.5753 27.4733 31.9164 28.5354 30.7532 29.69L30.436 30.023L30.4351 19.6523H27.7619V36.6251C27.7619 41.8478 31.7847 45.1018 36.4006 45.1018C41.4857 45.1018 45.3353 41.1885 45.3353 36.1582C45.3353 31.4875 41.32 27.4733 36.6697 27.4733ZM26.501 30.9175L25.3146 27.0298C24.6065 24.9851 24.397 23.808 22.4018 21.7014C21.7186 20.9787 19.132 19.3884 19.453 19.7354C22.7309 23.2736 24.4072 27.5609 25.0538 28.7517C24.46 28.0306 23.7639 27.383 22.9698 26.5776C22.2936 25.8917 21.5873 25.2729 20.9158 24.8582C20.4742 24.5845 20.2262 24.4337 19.7781 24.2017C17.7586 23.1526 15.8009 22.5175 15.0494 22.3299C14.1316 22.1014 13.2267 22.0417 13.2267 22.0417C13.2267 22.0417 16.1533 24.5124 17.4068 26.0851C18.6609 27.6571 19.9402 29.0668 21.3543 29.6431C22.7683 30.2196 23.2604 30.3847 24.3722 30.5531C25.3313 30.6977 26.501 30.9175 26.501 30.9175ZM36.4006 42.6655C33.0429 42.6655 30.2013 40.0179 30.2013 36.4717C30.2013 32.9235 32.5972 30.0094 36.4608 30.0094C40.3253 30.0094 42.602 33.1337 42.602 36.4062C42.602 39.9664 40.1927 42.6655 36.4006 42.6655Z" fill="#69C52F"/>
<path d="M54.7295 52.8529C54.7435 52.8856 54.7569 52.9167 54.7698 52.946C54.7826 52.9751 54.7937 53.006 54.803 53.0388C54.8149 53.006 54.8253 52.9751 54.8346 52.946C54.844 52.9167 54.858 52.8856 54.8769 52.8529L55.4699 51.7895C55.4909 51.7591 55.5109 51.7391 55.5295 51.7297C55.5483 51.7205 55.5763 51.7158 55.6138 51.7158H55.9858V53.7935H55.5997V52.5126L55.6313 52.2492L54.9891 53.4284C54.9586 53.494 54.9073 53.5267 54.8346 53.5267H54.7714C54.6989 53.5267 54.6487 53.494 54.6205 53.4284L53.9748 52.2597L54.0029 52.5126V53.7935H53.6169V51.7158H53.9888C54.0286 51.7158 54.0567 51.7205 54.0731 51.7297C54.0895 51.7391 54.1104 51.7591 54.1361 51.7895L54.7295 52.8529ZM53.28 51.7158V52.0844H52.6482V53.7935H52.206V52.0844H51.5742V51.7158H53.28Z" fill="#69C52F"/>
</svg>
