<svg width="64" height="64" viewBox="0 0 64 64" fill="none" xmlns="http://www.w3.org/2000/svg">
<path d="M38.5825 16.88C36.8627 19.22 36.4471 19.9996 34.787 19.9996H10V50H19.7253C21.9193 50 24.0536 48.92 25.4175 47.12C27.197 44.7204 27.4335 44.0004 29.1534 44.0004H54V14H44.215C42.021 14 39.8878 15.08 38.5825 16.88ZM46.2907 36.2604H35.9132C33.6596 36.2604 31.585 37.22 30.2211 39.0796C28.4416 41.4804 28.0857 42.2004 26.4255 42.2004H17.6496V27.8004H28.0271C30.2796 27.8004 32.3553 26.7204 33.7193 24.9204C35.4988 22.5804 35.9729 21.8604 37.5734 21.8604H46.2907V36.2604Z" fill="#15191E"/>
</svg>
