<svg width="64" height="64" viewBox="0 0 64 64" fill="none" xmlns="http://www.w3.org/2000/svg">
<path d="M32 10C19.8884 10 10.0332 19.8146 10 31.9171V32.0166C10 44.1523 19.8884 54 32 54C44.1448 54 54 44.1191 54 32.0166C54 19.8478 44.1448 10 32 10ZM26.4918 12.0889C28.1508 11.6247 29.9095 11.3595 31.7345 11.3263C31.834 11.3263 31.9004 11.3263 32 11.3263C32.0996 11.3263 32.1991 11.3263 32.2655 11.3263C35.0859 11.4258 37.5083 13.2163 38.5369 15.6699C38.7693 16.2005 38.9019 16.731 39.0015 17.3278C39.0679 17.6594 39.0679 18.0241 39.0679 18.3888C39.0679 19.9804 38.5369 21.4393 37.6742 22.633C36.7451 22.0693 35.7165 21.6383 34.6546 21.373C35.4841 20.6436 35.9819 19.5825 35.9819 18.3888C35.9819 17.5267 35.7165 16.731 35.2187 16.0678C34.4888 15.0731 33.3273 14.4099 32 14.4099C29.6772 14.4099 27.4871 14.841 25.4631 15.6699C24.899 15.902 24.3681 16.1673 23.837 16.4326C20.7179 18.0904 18.1297 20.6436 16.4706 23.7936C14.7451 24.1914 13.2187 25.1198 12.0905 26.413C14.0483 19.483 19.5234 14.0121 26.4918 12.0889ZM40.3952 18.0904C42.6516 19.4499 44.543 21.3399 45.9035 23.5946C45.8039 23.5946 45.7043 23.5946 45.6048 23.5946C43.7466 23.5946 42.0211 24.1914 40.6274 25.2525C40.0965 24.5562 39.4661 23.9261 38.7693 23.3956C39.7979 22.003 40.4283 20.2788 40.4283 18.422C40.3952 18.2894 40.3952 18.1899 40.3952 18.0904ZM47.9276 28.7671C47.264 28.3029 46.4676 28.0045 45.6048 28.0045C44.4102 28.0045 43.3484 28.5019 42.6184 29.3308C41.988 30.0271 41.6229 30.9555 41.6229 31.9834C41.6229 33.7076 41.1583 35.3323 40.3619 36.7249C40.1297 37.1228 39.8974 37.4876 39.5988 37.8523C39.101 38.5154 38.5037 39.0792 37.8733 39.5765C37.0769 38.7807 36.1147 38.1507 35.0196 37.7529C36.181 37.156 37.1433 36.1944 37.7406 35.0339C38.2384 34.1387 38.5037 33.0776 38.5037 31.9834C38.5037 30.1597 39.2006 28.5019 40.3288 27.242C40.6274 26.9103 40.9592 26.6119 41.3243 26.3135C42.5189 25.4183 43.9789 24.9208 45.5717 24.9208C45.9366 24.9208 46.3017 24.9541 46.6334 24.9872C47.2307 26.1809 47.6621 27.4408 47.9276 28.7671ZM48.2594 31.8508C48.2594 31.884 48.2594 31.9502 48.2594 31.9834C48.2594 32.0166 48.2594 32.0829 48.2594 32.1161C48.1931 33.5086 47.0316 34.636 45.6048 34.636C44.1448 34.636 42.9502 33.4424 42.9502 31.9834C42.9502 30.5245 44.1448 29.3308 45.6048 29.3308C47.0316 29.3308 48.1931 30.4582 48.2594 31.8508ZM38.7693 40.6043C39.4661 40.0739 40.0965 39.4438 40.6274 38.7475C42.0211 39.7755 43.7466 40.3722 45.6048 40.3722C45.7043 40.3722 45.8039 40.3722 45.9035 40.3722C44.543 42.627 42.6516 44.5169 40.3952 45.8764C40.3952 45.777 40.3952 45.6775 40.3952 45.578C40.3952 43.7212 39.7979 41.9969 38.7693 40.6043ZM34.6546 42.627C33.9577 41.9969 33.0286 41.6323 32.0331 41.6323C30.3076 41.6323 28.6817 41.1681 27.2882 40.3722C26.8899 40.1401 26.5249 39.908 26.1598 39.6097C25.4962 39.1123 24.899 38.5154 24.4012 37.8523C25.1976 37.0566 25.828 36.0949 26.2594 35.0339C26.8567 36.1944 27.819 37.156 29.0136 37.786C29.9095 38.2833 30.9714 38.5486 32.0664 38.5486C33.8914 38.5486 35.5505 39.2449 36.8114 40.3722C37.1433 40.6707 37.442 41.0023 37.7406 41.3671C38.6364 42.5607 39.1342 44.0196 39.1342 45.6111C39.1342 45.9759 39.1011 46.3074 39.0679 46.6722C37.8733 47.2358 36.6123 47.6669 35.285 47.9321C35.7496 47.269 36.0483 46.4733 36.0483 45.6111C35.9819 44.4175 35.451 43.3564 34.6546 42.627ZM34.6546 45.6111C34.6546 46.9706 33.6259 48.0979 32.2986 48.2306C32.1991 48.2306 32.1327 48.2306 32.0331 48.2306C31.9336 48.2306 31.834 48.2306 31.7678 48.2306C30.4405 48.0979 29.4117 46.9706 29.4117 45.6111C29.4117 44.1522 30.6063 42.9586 32.0664 42.9586C33.46 42.9586 34.6546 44.1522 34.6546 45.6111ZM23.6048 45.8764C21.3484 44.5169 19.4238 42.5938 18.0633 40.3391C18.1629 40.3391 18.2956 40.3391 18.3952 40.3391C20.2534 40.3391 21.9789 39.7422 23.3394 38.7144C23.9035 39.4107 24.5339 40.0407 25.2307 40.6043C24.2021 41.9969 23.5716 43.7212 23.5716 45.578C23.6048 45.7107 23.6048 45.8101 23.6048 45.8764ZM18.3952 35.9292C19.5566 35.9292 20.6184 35.4319 21.3484 34.6029C21.3816 34.5697 21.4148 34.5035 21.448 34.4702C21.5143 34.3708 21.5807 34.3045 21.6471 34.2049C21.6802 34.1718 21.7134 34.1055 21.7134 34.0724C21.7466 34.0391 21.7466 34.006 21.7798 33.9728C21.813 33.9066 21.8461 33.8403 21.9125 33.7739C21.9125 33.7739 21.9125 33.7739 21.9125 33.7408C21.9457 33.7076 21.9457 33.6413 21.9789 33.6082C22.0121 33.5418 22.0121 33.5086 22.0452 33.4424C22.0452 33.4092 22.0784 33.3761 22.0784 33.3428C22.1116 33.3097 22.1116 33.2434 22.1116 33.2103C22.1448 33.144 22.1448 33.0444 22.178 32.9782C22.178 32.9782 22.178 32.9782 22.178 32.945C22.178 32.9118 22.2112 32.8786 22.2112 32.8123C22.2112 32.7792 22.2443 32.7461 22.2443 32.7129V32.6797C22.2443 32.6465 22.2443 32.6134 22.2443 32.5803C22.2443 32.5471 22.2443 32.514 22.2443 32.4808C22.2443 32.4144 22.2443 32.3482 22.2775 32.2819C22.2775 32.2487 22.2775 32.2155 22.2775 32.1823C22.2775 32.1161 22.2775 32.0829 22.2775 32.0166V31.9834C22.2775 30.2592 22.7421 28.6346 23.5385 27.242C23.7708 26.844 24.003 26.4792 24.3017 26.1146C24.7994 25.4846 25.3636 24.8877 26.0271 24.3903C26.8235 25.1862 27.7858 25.8161 28.8808 26.2471C27.7195 26.844 26.7571 27.8056 26.1598 28.9661C25.6621 29.8613 25.3967 30.8893 25.3967 31.9834V32.0166C25.3967 33.8403 24.6667 35.4981 23.5385 36.7249C23.2398 37.0566 22.908 37.3549 22.543 37.6202C21.3484 38.4823 19.9216 39.0128 18.3288 39.0128C17.9638 39.0128 17.5988 38.9796 17.2338 38.9465C16.6697 37.7529 16.2383 36.4928 15.9728 35.1665C16.736 35.664 17.5324 35.9292 18.3952 35.9292ZM15.7406 31.9834C15.7406 31.9171 15.7406 31.8839 15.7406 31.8177C15.8069 30.4251 16.9683 29.2977 18.3952 29.2977C19.8552 29.2977 21.0498 30.4914 21.0498 31.9502V31.9834C21.0166 33.4092 19.8552 34.5697 18.3952 34.5697C16.9351 34.6029 15.7737 33.4424 15.7406 31.9834ZM25.2307 23.3956C24.5339 23.9261 23.9366 24.5562 23.4057 25.2193C22.0121 24.1914 20.2866 23.5614 18.3952 23.5614C18.2956 23.5614 18.1961 23.5614 18.1297 23.5614C19.4902 21.3399 21.3816 19.4499 23.6048 18.0904C23.6048 18.1899 23.6048 18.2894 23.6048 18.3888C23.6048 20.2457 24.2021 21.9699 25.2307 23.3956ZM29.3786 21.373C30.0754 22.003 31.0045 22.3678 32.0331 22.3678C33.7586 22.3678 35.3846 22.832 36.7783 23.6277C37.1765 23.8599 37.5415 24.092 37.9065 24.3903C38.5702 24.8877 39.1342 25.4846 39.6319 26.1146C38.8355 26.9103 38.2051 27.8718 37.8069 28.9661C37.2096 27.8056 36.2474 26.844 35.0859 26.2471C34.1901 25.7498 33.1282 25.4846 32.0331 25.4846C30.2081 25.4846 28.549 24.7883 27.2882 23.6609C26.9562 23.3625 26.6576 23.0309 26.3589 22.6662C25.4631 21.4725 24.9654 20.0136 24.9654 18.422C24.9654 18.0573 24.9985 17.6925 25.0316 17.361C26.2262 16.7973 27.4871 16.3662 28.8145 16.101C28.3499 16.7641 28.0513 17.5599 28.0513 18.422C28.0181 19.5825 28.549 20.6436 29.3786 21.373ZM29.3454 18.3888C29.3454 16.9631 30.4736 15.8026 31.8673 15.7363C31.9004 15.7363 31.9669 15.7363 32 15.7363C32.0331 15.7363 32.0996 15.7363 32.1327 15.7363C33.5264 15.8026 34.6546 16.9631 34.6546 18.3888C34.6546 19.8478 33.46 21.0414 32 21.0414C30.54 21.0414 29.3454 19.8478 29.3454 18.3888ZM37.2096 31.9834C37.2096 34.8681 34.8868 37.1891 32 37.1891C29.1132 37.1891 26.7904 34.8681 26.7904 31.9834V31.9502C26.8235 29.0988 29.1463 26.7778 32 26.7778C34.8537 26.7778 37.2096 29.1319 37.2096 31.9834ZM12.0573 37.4544C11.5928 35.7965 11.3605 34.0724 11.3273 32.2819C11.3273 32.1823 11.3273 32.1161 11.3273 32.0166V31.9502C11.3273 31.8508 11.3273 31.7845 11.3273 31.685C11.46 28.8666 13.2187 26.4792 15.7074 25.4514C16.2383 25.2525 16.7692 25.0866 17.3665 24.9872C17.6983 24.9208 18.0633 24.9208 18.3952 24.9208C19.9879 24.9208 21.448 25.4514 22.6425 26.3467C22.0784 27.2751 21.6471 28.3029 21.3816 29.364C20.6516 28.535 19.5897 28.0377 18.3952 28.0377C17.5324 28.0377 16.736 28.3029 16.0724 28.7671C15.0769 29.4967 14.4133 30.6572 14.4133 31.9502V32.0166C14.4133 34.3045 14.8446 36.4928 15.641 38.4823C15.8733 39.0459 16.1056 39.5765 16.4042 40.107C18.0633 43.2901 20.6516 45.8764 23.8039 47.5343C24.2021 49.2584 25.1645 50.7837 26.4585 51.9111C19.4902 49.9879 13.9819 44.4506 12.0573 37.4544ZM37.5415 51.9111C35.8823 52.3753 34.1237 52.6405 32.2986 52.6405C32.1991 52.6405 32.1327 52.6405 32.0331 52.6405C31.9336 52.6405 31.834 52.6405 31.7678 52.6405C28.9472 52.5411 26.5249 50.7506 25.4963 48.2969C25.264 47.7664 25.1312 47.2358 25.0316 46.6391C24.9654 46.3074 24.9654 45.9428 24.9654 45.578C24.9654 43.9864 25.4963 42.5275 26.3589 41.3338C27.2882 41.8975 28.3168 42.3286 29.3786 42.5938C28.549 43.3233 28.0513 44.3843 28.0513 45.578C28.0513 46.4401 28.3168 47.2358 28.8145 47.899C29.4781 48.8274 30.5068 49.4574 31.7013 49.557H31.7345C31.834 49.557 31.9336 49.557 32.0331 49.557C32.1327 49.557 32.2322 49.557 32.3318 49.557H32.3651C34.555 49.5237 36.6456 49.0595 38.5702 48.2969C39.1342 48.0648 39.6652 47.8327 40.1961 47.5343C43.3484 45.8764 45.9366 43.2901 47.5958 40.1401C49.3213 39.7422 50.8477 38.7807 51.9427 37.4876C50.0181 44.4838 44.5098 49.9879 37.5415 51.9111ZM52.6727 31.9834C52.6727 32.0829 52.6727 32.1492 52.6727 32.2487C52.5732 35.0671 50.7813 37.4543 48.3258 38.4823C47.7949 38.7144 47.264 38.8471 46.6667 38.9465C46.3348 39.0128 45.9699 39.0128 45.6048 39.0128C44.012 39.0128 42.552 38.4823 41.3907 37.6202C41.9547 36.6918 42.3861 35.664 42.6516 34.6029C43.3816 35.4319 44.4435 35.9292 45.6381 35.9292C46.5008 35.9292 47.2971 35.6307 47.9607 35.1665C48.9562 34.437 49.6199 33.2766 49.6199 31.9502C49.6199 29.6624 49.1886 27.4409 48.3589 25.4183C48.1267 24.8545 47.8612 24.3241 47.5958 23.7936C45.9366 20.6436 43.3484 18.0573 40.1961 16.3994C39.7979 14.6752 38.8355 13.15 37.5415 12.0226C44.5098 13.9457 50.0181 19.4499 51.9427 26.413C52.4072 28.0708 52.6727 29.8282 52.6727 31.6518C52.6727 31.7845 52.6727 31.8839 52.6727 31.9834Z" fill="#2A2924"/>
</svg>
