<svg width="64" height="64" viewBox="0 0 64 64" fill="none" xmlns="http://www.w3.org/2000/svg">
<path fill-rule="evenodd" clip-rule="evenodd" d="M44.1591 46.519C44.1591 49.6807 44.2668 52.5344 44.4875 55.0785H35.1414V50.7552C35.1414 50.7552 31.5617 55.9997 23.3008 56C14.4936 56 5.84969 50.9459 5.84961 37.1693C5.84961 24.1322 14.1718 18.3386 23.2972 18.3386C31.58 18.3386 35.0995 23.572 35.1379 23.6295V8H44.1591V46.519ZM25.6018 25.2594C19.2161 25.2594 15.2348 29.6482 15.2348 37.1693C15.2348 44.6902 19.3838 49.0792 25.6018 49.0792C31.9899 49.0789 36.1196 44.2157 36.1197 37.1693C36.1197 29.8765 31.9871 25.2597 25.6018 25.2594Z" fill="#1B1B1B"/>
<path d="M58.1516 55.0501H49.4624V46.6237H58.1516V55.0501Z" fill="#1B1B1B"/>
</svg>
