<svg width="64" height="64" viewBox="0 0 64 64" fill="none" xmlns="http://www.w3.org/2000/svg">
<path d="M48.3439 52.1799C43.763 55.8941 37.9439 57.9989 32.0011 57.9989C26.0582 57.9989 20.2392 56.018 15.6582 52.1799C20.2392 48.4656 26.0582 46.3608 32.0011 46.3608C38.1915 46.3608 43.8868 48.5894 48.3439 52.1799Z" fill="#FF355E"/>
<path fill-rule="evenodd" clip-rule="evenodd" d="M15.5333 45.8666C12.1905 42.0286 10.3334 37.0762 10.4571 31.9999C10.4571 20.1143 20.1143 10.4571 31.9999 10.4571C43.8857 10.4571 53.5429 20.1143 53.5429 31.9999C53.5429 37.3238 51.6857 42.1523 48.4666 45.8666C49.581 46.6095 50.5714 47.3523 51.5619 48.0952L51.9334 48.4666C55.8952 43.8857 58 38.0667 58 31.9999C58 17.638 46.3619 6 31.9999 6C17.638 6 6 17.638 6 31.9999C6 38.0667 8.10476 43.8857 11.9429 48.4666L12.3143 48.0952C13.3048 47.3523 14.419 46.6095 15.5333 45.8666Z" fill="#FF355E"/>
<path d="M41.6561 31.2553C41.6561 36.5791 37.3227 40.9124 31.9989 40.9124C26.6751 40.9124 22.3418 36.5791 22.3418 31.2553C22.3418 25.9315 26.6751 21.5981 31.9989 21.5981C37.3227 21.5981 41.6561 25.9315 41.6561 31.2553Z" fill="#FF355E"/>
</svg>
