<svg width="64" height="64" viewBox="0 0 64 64" fill="none" xmlns="http://www.w3.org/2000/svg">
<path d="M58.1451 21.1353C57.8889 17.5894 57.8469 13.9211 55.6369 11.3506C53.8743 9.30035 51.9476 8.19107 49.6534 7.52548C45.3293 6.27083 41.5021 6.37793 37.094 6.25553C27.4439 5.98015 18.1838 5.39872 12.2157 7.99216C6.14423 9.98121 5.73898 24.5129 6.09072 30.6445C6.33923 34.9936 6.27806 41.3817 8.18588 45.44C10.7513 50.9025 16.4519 50.887 21.8427 51.5451C24.412 51.8587 32.1923 51.9467 34.8878 51.9543C35.9583 53.6679 38.9406 54.9302 40.2404 55.7144C41.5405 56.4987 45.8227 57.5925 46.136 56.617C46.4496 55.6419 44.4538 53.691 45.1803 50.9444C48.7895 50.2138 49.837 50.5621 52.3069 49.7816C56.0461 48.596 57.4264 44.1816 58.0801 39.4614C58.6842 35.1047 58.4586 25.5189 58.1451 21.1353Z" fill="#EE164F"/>
<path d="M30.9351 33.1582C31.1414 34.6267 31.2982 41.0845 31.52 43.1406C31.5544 43.5792 31.6768 43.8272 32.1204 43.8196C32.4724 43.854 33.1148 43.8692 34.0249 43.8692C35.0995 43.873 36.1857 43.8424 37.0804 43.8386C38.6215 43.854 37.8798 40.9586 37.895 39.372C37.7457 36.3051 37.6502 28.7446 37.482 25.2925C37.459 24.568 37.3596 18.9453 37.3022 17.6751C37.2716 17.1296 37.3788 15.9051 37.199 15.5199C36.981 15.1689 36.021 15.0621 35.4705 15.1003C34.0479 15.1003 32.8662 15.1155 31.7304 15.2986C30.7171 15.4627 30.3306 15.8479 30.3117 16.7214C30.3041 16.9846 30.3268 18.6974 30.3461 20.5092C30.3653 22.1876 30.3956 23.969 30.3956 24.9151C30.3574 25.8649 28.7362 25.3726 27.8184 25.4948C26.3192 25.4604 22.5218 25.5863 21.7684 25.6282C21.3095 25.6169 21.2636 25.224 21.168 24.7737C20.9577 22.7102 20.7091 19.5289 20.6097 17.3623C20.5753 16.176 20.5141 15.1918 20.1317 15.1308C19.1451 14.9477 14.5867 15.0087 14.3266 15.5046C14.0972 16.1798 14.1698 17.778 14.1851 18.93C14.2348 24.8005 14.7549 31.9222 14.839 37.5866C14.9002 39.307 14.9385 42.8544 14.9423 43.0415C14.9461 43.6325 15.0111 43.789 15.6001 43.85C17.4395 43.9531 19.6881 43.8121 21.5352 43.8616C22.4835 43.9225 22.0246 42.164 22.1356 41.4622C22.1547 39.8945 22.0858 37.3692 21.975 36.0189C21.8985 32.9367 21.0648 32.9673 24.2121 32.8111C24.7589 32.7691 27.3402 32.6773 28.8586 32.6432C29.8337 32.7193 30.5909 32.2503 30.9351 33.1582Z" fill="white"/>
<path fill-rule="evenodd" clip-rule="evenodd" d="M49.3902 17.4497C49.194 15.6587 47.889 14.4531 46.1424 14.4531C45.656 14.4531 45.1544 14.5456 44.6563 14.7304C44.3847 14.8306 44.1358 14.9615 43.9172 15.1272C43.9134 15.1272 43.9096 15.131 43.9059 15.1349C42.8724 15.8975 42.314 17.1647 42.4498 18.4511C42.5781 19.649 43.2833 20.608 44.3809 21.0895C44.3847 21.0895 44.3885 21.0933 44.3885 21.0933C44.9052 21.3167 45.5429 21.4477 46.1348 21.4477C46.6667 21.4477 47.425 21.3476 48.0245 20.8661C49.1448 19.961 49.5522 18.9403 49.3902 17.4497Z" fill="white"/>
<path d="M49.4234 30.0155C49.4234 28.6367 49.389 27.6598 49.4196 26.2271C49.5379 24.6553 47.8263 24.9914 46.6372 24.945C45.7224 24.945 44.8154 24.9643 43.9426 24.9643C43.3976 24.9876 43.142 25.0144 43.1726 25.4894C42.8791 31.4596 43.1344 35.2748 43.0315 40.9168C42.9438 44.7475 43.0545 43.6237 46.3589 43.84C47.0986 43.8516 48.5202 43.9985 49.0879 43.7088C49.3738 43.5118 49.3053 43.1953 49.3738 42.7666C49.3435 37.2289 49.3852 36.7886 49.4234 30.0155Z" fill="white"/>
</svg>
