<svg width="64" height="64" viewBox="0 0 64 64" fill="none" xmlns="http://www.w3.org/2000/svg">
<path d="M10 10.8302C10 10.3717 10.3717 10 10.8302 10H53.1698C53.6283 10 54 10.3717 54 10.8302V53.1698C54 53.6283 53.6283 54 53.1698 54H10.8302C10.3717 54 10 53.6283 10 53.1698V10.8302Z" fill="#53AEFF"/>
<path d="M38.1345 39.0835H25.6816V44.8948H38.1345V39.0835Z" fill="white"/>
<path d="M24.8516 33.2373L29.2933 32.3732C29.3776 34.7061 30.0945 35.8292 31.5985 35.8292C32.9058 35.8292 33.5102 35.2101 33.5102 33.4101V19.9893H38.1346V32.2869C38.1346 37.0964 36.1948 39.0836 31.5001 39.0836C26.6367 39.0836 25.217 36.1748 24.8516 33.2373Z" fill="#1C1D1F"/>
</svg>
