<svg width="64" height="64" viewBox="0 0 64 64" fill="none" xmlns="http://www.w3.org/2000/svg">
<path fill-rule="evenodd" clip-rule="evenodd" d="M44.6524 16.3176C43.3267 14.9664 41.1775 14.9664 39.8514 16.3176L24.8496 31.6081L29.6507 36.5015L44.6524 21.211C45.9781 19.8594 45.9781 17.6687 44.6524 16.3176Z" fill="#16B8A2"/>
<path fill-rule="evenodd" clip-rule="evenodd" d="M59.0567 35.8922L48.8562 46.2888C47.5307 47.6401 45.3813 47.6401 44.0556 46.2888L19.4494 21.2089C18.1237 19.8578 18.1237 17.6671 19.4494 16.3159C20.7753 14.9643 22.9247 14.9643 24.2503 16.3159L46.4558 38.9487L54.2556 30.9988C55.5816 29.6476 57.7309 29.6476 59.0567 30.9988C60.3822 32.3504 60.3822 34.5411 59.0567 35.8922Z" fill="#F56358"/>
<path fill-rule="evenodd" clip-rule="evenodd" d="M47.0525 23.658L32.0507 38.9484L17.0472 23.6563C15.7211 22.3047 13.5718 22.3047 12.2462 23.6563C10.9205 25.0074 10.9205 27.1981 12.2462 28.5497L29.6501 46.2886C30.9759 47.6398 33.1252 47.6398 34.4512 46.2886L51.8535 28.5514C53.1791 27.1998 53.1791 25.0092 51.8535 23.658C50.5274 22.3068 48.3781 22.3068 47.0525 23.658Z" fill="#FFB41F"/>
<path fill-rule="evenodd" clip-rule="evenodd" d="M17.6476 38.949L9.84603 30.9973C8.52038 29.6461 6.37108 29.6461 5.04502 30.9973C3.71937 32.3484 3.71937 34.539 5.04502 35.8906L15.2471 46.2891C16.5727 47.6402 18.7225 47.6402 20.0481 46.2891L29.6506 36.5014L24.85 31.608L17.6476 38.949Z" fill="#16B8A2"/>
</svg>
