<svg width="64" height="64" viewBox="0 0 64 64" fill="none" xmlns="http://www.w3.org/2000/svg">
<path d="M12.8088 10C12.0639 10 11.3494 10.2961 10.8227 10.8232C10.2959 11.3503 10 12.0652 10 12.8106V51.1894C10 51.9348 10.2959 52.6497 10.8227 53.1768C11.3494 53.7039 12.0639 54 12.8088 54H18.7284C19.4733 54 20.1877 53.7039 20.7145 53.1768C21.2413 52.6497 21.5372 51.9348 21.5372 51.1894V24.3622C21.5372 23.6168 21.8331 22.9019 22.3599 22.3748C22.8866 21.8477 23.6011 21.5516 24.346 21.5516H39.6189C40.3638 21.5516 41.0783 21.8477 41.605 22.3748C42.1318 22.9019 42.4277 23.6168 42.4277 24.3622V39.6027C42.4277 40.3481 42.1318 41.063 41.605 41.5901C41.0783 42.1172 40.3638 42.4133 39.6189 42.4133H30.8273C30.0824 42.4133 29.3679 42.7094 28.8412 43.2365C28.3144 43.7636 28.0185 44.4785 28.0185 45.2239V51.1472C28.0185 51.8927 28.3144 52.6075 28.8412 53.1346C29.3679 53.6617 30.0824 53.9578 30.8273 53.9578H51.1912C51.9361 53.9578 52.6506 53.6617 53.1773 53.1346C53.7041 52.6075 54 51.8927 54 51.1472V12.8106C54 12.0652 53.7041 11.3503 53.1773 10.8232C52.6506 10.2961 51.9361 10 51.1912 10H12.8088Z" fill="#00833E"/>
</svg>
