<svg width="64" height="64" viewBox="0 0 64 64" fill="none" xmlns="http://www.w3.org/2000/svg">
<path fill-rule="evenodd" clip-rule="evenodd" d="M6.00125 34.5965V34.5501C5.99792 34.5103 6.00125 34.4704 6.01121 34.4339C6.02117 34.3974 6.0411 34.3609 6.06435 34.3311C6.0876 34.3012 6.11749 34.2747 6.15071 34.2548C6.18392 34.2382 6.22045 34.2249 6.26031 34.2183H22.9201C22.9489 34.2205 22.9766 34.2271 23.0031 34.2382C23.0297 34.2514 23.0541 34.2669 23.0762 34.2846C23.0983 34.3045 23.1161 34.3278 23.1293 34.3543C23.1448 34.3786 23.1548 34.4052 23.1592 34.4339C26.351 46.5057 29.3768 50.534 32.0006 50.534C35.6474 50.534 38.5138 42.7196 39.9253 37.9115C40.0283 37.563 40.4733 37.6991 40.4136 38.0674C37.4044 57.6715 28.3771 57.6715 25.4775 57.6715C16.4003 57.6583 8.70481 47.9856 6.00125 34.5965ZM58 34.5136C55.3496 47.7865 47.6541 57.6284 38.5436 57.6284C38.2004 57.6262 37.8583 57.6118 37.5174 57.5853C37.1764 57.5565 36.8365 57.5156 36.4977 57.4625C36.1611 57.4094 35.8257 57.3441 35.4913 57.2667C35.1592 57.1871 34.8304 57.0953 34.5049 56.9913C34.496 56.9869 34.4872 56.9825 34.4783 56.978C34.4695 56.9714 34.4606 56.9659 34.4518 56.9614C34.4429 56.9548 34.4352 56.9482 34.4285 56.9415C34.4219 56.9349 34.4152 56.9271 34.4086 56.9183C34.3754 56.8884 34.3521 56.8519 34.3355 56.8121C34.3189 56.7723 34.3123 56.7325 34.3123 56.6893C34.3123 56.6462 34.3189 56.6031 34.3355 56.5633C34.3521 56.5234 34.3754 56.4869 34.4086 56.4571C38.9455 52.2894 41.5827 44.7935 42.6156 34.4771C42.6178 34.4439 42.6245 34.4118 42.6355 34.3809C42.6488 34.3521 42.6665 34.3256 42.6887 34.3012C42.713 34.2769 42.7396 34.2581 42.7684 34.2448C42.7994 34.2293 42.8315 34.2205 42.8647 34.2183H57.721C57.7586 34.2205 57.7941 34.2304 57.8273 34.2481C57.8605 34.2636 57.8893 34.2846 57.9136 34.3112C57.9402 34.3399 57.959 34.372 57.9701 34.4074C57.9834 34.4406 57.9889 34.476 57.9867 34.5136H58Z" fill="url(#paint0_linear_212_38017)"/>
<path fill-rule="evenodd" clip-rule="evenodd" d="M57.988 29.0617C57.988 29.0639 57.988 29.0673 57.988 29.0717C57.988 29.0761 57.988 29.0794 57.988 29.0816C57.988 29.0861 57.988 29.0894 57.988 29.0916C57.988 29.096 57.988 29.0993 57.988 29.1015C57.9946 29.1414 57.9946 29.1779 57.988 29.2177C57.9813 29.2542 57.9647 29.2907 57.9448 29.3205C57.9215 29.3537 57.895 29.3803 57.8651 29.4002C57.8319 29.4234 57.7987 29.4367 57.7588 29.4466H41.0824C41.0536 29.4444 41.0259 29.4378 40.9994 29.4267C40.9728 29.4179 40.9484 29.4035 40.9263 29.3836C40.9041 29.3637 40.8853 29.3416 40.8698 29.3172C40.8565 29.2907 40.8477 29.263 40.8433 29.2343C37.6515 17.1526 34.6257 13.1242 32.0019 13.1242C28.3551 13.1242 25.4888 20.9387 24.0772 25.7501C23.9742 26.0985 23.5292 25.9592 23.589 25.5909C26.6047 6 35.6354 6 38.5017 6C47.6022 6 55.2977 15.6727 57.988 29.0617ZM25.4655 6.02986C25.8065 6.03208 26.1475 6.04646 26.4885 6.073C26.8295 6.10176 27.1693 6.14268 27.5081 6.19578C27.8447 6.25108 28.179 6.31855 28.5112 6.39819C28.8433 6.47783 29.1721 6.56963 29.4976 6.6736C29.5065 6.67803 29.5153 6.68245 29.5242 6.68687C29.533 6.69351 29.5419 6.69904 29.5507 6.70347C29.5574 6.7101 29.5651 6.71674 29.574 6.72337C29.5806 6.73001 29.5873 6.73775 29.5939 6.7466C29.6238 6.77647 29.6504 6.80965 29.667 6.84947C29.6836 6.88929 29.6902 6.93242 29.6902 6.97224C29.6902 7.01538 29.6836 7.05852 29.667 7.09834C29.6504 7.13815 29.6238 7.17134 29.5939 7.2012C25.057 11.339 22.4198 18.8648 21.3869 29.1812C21.3847 29.2144 21.3769 29.2464 21.3637 29.2774C21.3504 29.3084 21.3316 29.336 21.3072 29.3604C21.2851 29.3825 21.2585 29.4013 21.2275 29.4168C21.1987 29.43 21.1677 29.4378 21.1345 29.44H6.26157C6.22393 29.4356 6.1885 29.4256 6.15529 29.4101C6.12429 29.3924 6.09661 29.3703 6.07225 29.3438C6.0479 29.315 6.02908 29.2829 6.01579 29.2475C6.00472 29.2122 6.00029 29.1756 6.00251 29.138C8.64961 15.8717 16.3485 6.02986 25.4655 6.02986Z" fill="url(#paint1_linear_212_38017)"/>
<defs>
<linearGradient id="paint0_linear_212_38017" x1="55.1569" y1="45.9349" x2="7.40285" y2="45.9349" gradientUnits="userSpaceOnUse">
<stop stop-color="#FF8F1C"/>
<stop offset="1" stop-color="#ED2024"/>
</linearGradient>
<linearGradient id="paint1_linear_212_38017" x1="8.84224" y1="17.7233" x2="56.5997" y2="17.7233" gradientUnits="userSpaceOnUse">
<stop stop-color="#FF8F1C"/>
<stop offset="1" stop-color="#ED2024"/>
</linearGradient>
</defs>
</svg>
