<svg width="64" height="64" viewBox="0 0 64 64" fill="none" xmlns="http://www.w3.org/2000/svg">
<path d="M43.3244 19.011L39.3603 11.9441C39.0292 11.3541 38.5469 10.8629 37.963 10.5212C37.3791 10.1795 36.7147 9.99961 36.0382 10H22.3098C20.6944 9.99882 19.0946 10.3159 17.6018 10.933C16.1089 11.5501 14.7522 12.4553 13.6092 13.5968C12.4661 14.7384 11.559 16.0939 10.9398 17.586C10.3205 19.0781 10.0012 20.6775 10 22.2931V38.9861H21.349V24.0171C21.349 22.5355 22.5522 21.3322 24.0337 21.3322H39.9663C41.4478 21.3322 42.6465 22.5355 42.6465 24.0127V39.9829C42.6465 41.4645 41.4478 42.6633 39.9663 42.6633H24.716V54H36.1728C37.5511 54 38.8215 53.2547 39.4949 52.0514L43.266 45.3302C43.4994 44.915 43.839 44.5693 44.25 44.3287C44.661 44.088 45.1287 43.9611 45.6049 43.9608H51.3154C52.7969 43.9608 54 42.762 54 41.2804V23.0653C54 22.7129 53.9305 22.364 53.7956 22.0385C53.6606 21.713 53.4628 21.4173 53.2134 21.1684C52.9641 20.9194 52.6681 20.7221 52.3424 20.5876C52.0167 20.4532 51.6677 20.3843 51.3154 20.3849H45.6723C45.1948 20.385 44.7259 20.2578 44.314 20.0163C43.9021 19.7748 43.562 19.4278 43.3288 19.011H43.3244Z" fill="black" fill-opacity="0.89"/>
</svg>
