<svg width="64" height="64" viewBox="0 0 64 64" fill="none" xmlns="http://www.w3.org/2000/svg">
<path d="M14.5596 10.3823C14.5596 11.855 13.3324 13.0823 11.8597 13.0823H7.44154V7.68232H11.9415C12.6576 7.68232 13.3443 7.96678 13.8507 8.47312C14.357 8.97946 14.6415 9.66621 14.6415 10.3823H14.5596ZM18.4051 10.3823C18.4161 9.54118 18.2585 8.70638 17.9417 7.92715C17.6249 7.14791 17.1552 6.44001 16.5604 5.84521C15.9656 5.2504 15.2577 4.78074 14.4784 4.46392C13.6992 4.1471 12.8644 3.98954 12.0233 4.00054H3.75977V22.164H7.44154V16.764H12.0233C15.5415 16.764 18.4051 13.9004 18.4051 10.3823ZM28.2231 43.9274H41.5593V40.3274H31.8231V37.3002C33.2997 37.0877 34.752 36.7314 36.1594 36.2365L37.9594 35.582L36.6503 31.982L34.8503 32.6366L31.8231 33.4548V29.5275H41.5593V25.8457H28.1413V33.7002C25.9322 33.4548 24.2959 32.5548 23.2323 31.6548C21.3505 30.0184 19.3869 26.7457 20.7778 20.2822L21.1868 18.4004L17.4232 17.5822L17.0142 19.464C15.6505 26.0639 16.8778 31.0821 20.6959 34.5184C22.7787 36.3049 25.4 37.3419 28.1413 37.4638V44.0092L28.2231 43.9274ZM56.5319 48.5909C56.5442 49.3671 56.4338 50.1402 56.2046 50.8818C55.9864 51.5909 55.6319 52.1909 55.141 52.6818C54.6878 53.2013 54.1302 53.6194 53.5047 53.9091C52.1632 54.4338 50.6734 54.4338 49.332 53.9091C48.7064 53.6194 48.1489 53.2013 47.6956 52.6818C47.2593 52.1364 46.932 51.5364 46.7138 50.8818C46.4569 50.1447 46.3188 49.3714 46.3047 48.5909C46.3047 47.7728 46.4411 47.0091 46.7138 46.3001C46.9865 45.591 47.3138 44.9637 47.6956 44.4183C48.1489 43.8988 48.7064 43.4807 49.332 43.191C50.6975 42.6447 52.2209 42.6447 53.5865 43.191C54.212 43.4807 54.7696 43.8988 55.2228 44.4183C56.0851 45.6121 56.5696 47.0371 56.6137 48.5091L56.5319 48.5909ZM60.2137 48.5909C60.3064 47.3567 60.1435 46.1166 59.7353 44.9482C59.327 43.7797 58.6822 42.708 57.841 41.8001C57.0617 40.9577 56.1139 40.2887 55.0592 39.8365C53.9226 39.3461 52.6971 39.0954 51.4592 39.1001C50.1938 39.084 48.9393 39.3349 47.7775 39.8365C46.7227 40.2887 45.775 40.9577 44.9957 41.8001C44.232 42.6183 43.6593 43.6274 43.2775 44.8274C42.8957 45.9728 42.7048 47.2273 42.7048 48.5909C42.7048 49.9546 42.8957 51.2091 43.2775 52.3545C43.6593 53.5 44.232 54.4818 44.9957 55.3C45.775 56.1423 46.7227 56.8114 47.7775 57.2636C48.9229 57.7545 50.1502 57.9999 51.4592 57.9999C52.6971 58.0047 53.9226 57.754 55.0592 57.2636C56.1139 56.8114 57.0617 56.1423 57.841 55.3C58.6591 54.4818 59.2591 53.5 59.641 52.3545C60.0228 51.1546 60.2137 49.9 60.2137 48.5909Z" fill="black"/>
</svg>
