<svg width="64" height="64" viewBox="0 0 64 64" fill="none" xmlns="http://www.w3.org/2000/svg">
<path d="M49.3877 45.0027H49.9902V56H48.1857C36.4675 56 29.6875 49.3359 29.6875 38.4564V32.8617L33.4953 31.907C34.6104 31.6256 35.6239 31.0373 36.4205 30.2092C37.2172 29.3812 37.7648 28.3465 38.0012 27.2229C38.2375 26.0996 38.1531 24.9325 37.7574 23.8546C37.3619 22.7767 36.671 21.8312 35.7635 21.1259C34.8558 20.4206 33.7682 19.9838 32.624 19.8652C31.48 19.7465 30.3256 19.9507 29.292 20.4547C28.2585 20.9585 27.3875 21.742 26.7782 22.7156C26.169 23.6892 25.8458 24.8141 25.8455 25.9621V49.931H14V25.5467C13.9994 24.8129 14.046 24.08 14.1398 23.3522C15.2454 14.6983 22.8174 8 31.9951 8C40.3156 8 47.3193 13.508 49.3877 20.9903C50.463 24.9093 50.1142 29.0816 48.4031 32.7688C46.9534 35.8801 44.6292 38.5043 41.7133 40.3223C42.6917 44.2805 44.7724 45.0121 49.3877 45.0121" fill="#0564FF"/>
</svg>
