<svg width="64" height="64" viewBox="0 0 64 64" fill="none" xmlns="http://www.w3.org/2000/svg">
<path fill-rule="evenodd" clip-rule="evenodd" d="M22.3883 20.8634H14V54H22.3883V20.8634ZM48.7417 22.7764C48.7417 15.7391 42.8699 10 35.6699 10H14V17.1056H34.6214C37.9068 17.1056 40.5631 19.6335 40.633 22.7081C40.633 24.2795 40.0738 25.7143 38.9553 26.8075C37.8369 27.8323 36.3689 28.4472 34.8311 28.4472H26.7922C26.5126 28.4472 26.3029 28.6522 26.3029 28.9255V35.2795C26.3029 35.4161 26.3029 35.4845 26.3728 35.5528L40.0039 54H50L36.299 35.4845C43.1495 35.2112 48.7417 29.5404 48.7417 22.7764Z" fill="black"/>
</svg>
