<svg width="64" height="64" viewBox="0 0 64 64" fill="none" xmlns="http://www.w3.org/2000/svg">
<rect x="6" y="6" width="52" height="52" rx="4" fill="#FDB61C"/>
<path d="M33.6152 16C38.6172 19.5228 40.1555 27.5643 33.8582 32.609C35.9842 33.6277 37.096 35.3268 37.3601 37.5035C37.5158 38.7866 37.4996 40.0906 37.5211 41.3857C37.5458 42.8797 37.5268 44.3743 37.5268 45.9343C35.2577 46 32.9887 46 30.6503 46C30.5811 43.877 30.6289 41.7526 30.5652 39.6313C30.5181 38.0655 30.2589 36.5215 29.2501 35.1958C28.5093 34.2225 27.5909 33.4497 26.4244 32.9626C25.9761 32.7755 25.8139 32.6446 26.33 32.2712C27.7983 31.2089 29.0585 29.9565 29.8933 28.3647C31.5177 25.2674 31.2826 22.2269 29.2969 19.4011C28.4882 18.2503 27.2363 17.3801 26.1901 16.3785C26.1102 16.3019 26.0627 16.1949 26 16.051C28.5152 16 31.0306 16 33.6152 16Z" fill="#4E2F3A"/>
<path d="M44.6662 46C44.5971 43.8292 44.643 41.6572 44.5815 39.4879C44.5383 37.9644 44.2183 36.4842 43.2718 35.1884C42.5165 34.1544 41.4932 33.4086 40.3426 32.8537C39.8003 32.5922 39.989 32.5788 40.3102 32.3289C41.5447 31.3685 42.6995 30.3377 43.5314 29.0109C44.3111 27.7673 44.8011 26.4716 44.9122 25.005C45.0786 22.8104 44.5129 20.8317 43.103 19.131C42.2793 18.1374 41.2254 17.3167 40.2787 16.4148C40.1822 16.3228 40.111 16.2068 40.0279 16.051C42.5366 16 45.0455 16 47.6235 16C52.6043 19.5158 54.1632 27.5433 47.8615 32.6156C49.9954 33.5925 51.1181 35.2989 51.3432 37.4386C51.5539 39.4408 51.4813 41.4704 51.5224 43.4882C51.5385 44.2814 51.525 45.0751 51.525 45.9343C49.2618 46 46.9985 46 44.6662 46Z" fill="#4E2F3A"/>
<path d="M19.635 16.0205C21.8745 17.6943 23.3902 19.7849 23.8237 22.4229C24.4448 26.2026 23.4559 29.529 20.3592 32.1491C20.1942 32.2888 20.0246 32.4235 19.8155 32.5947C21.9594 33.6442 23.1036 35.3038 23.3796 37.4523C23.5471 38.7565 23.5214 40.0851 23.5433 41.4033C23.5681 42.8968 23.549 44.3911 23.549 45.9507C21.2786 46.0164 19.0081 46.0164 16.6683 45.9507C16.599 44.1623 16.6342 42.4387 16.5863 40.7172C16.5558 39.6232 16.5327 38.5037 16.276 37.4458C15.7365 35.2227 14.3144 33.6448 12.0149 32.8406C12.0149 32.7355 12.0149 32.6304 12.0681 32.4725C12.4648 32.1773 12.8324 31.9599 13.1481 31.6884C15.987 29.2478 17.5174 26.3232 16.7396 22.6087C16.1621 19.8512 14.4089 17.8525 12.0149 16.3008C11.9248 15.8764 12.2646 16.0255 12.4525 16.025C14.8236 16.0181 17.1947 16.0205 19.635 16.0205Z" fill="#4E2F3A"/>
</svg>
