<svg width="64" height="64" viewBox="0 0 64 64" fill="none" xmlns="http://www.w3.org/2000/svg">
<path fill-rule="evenodd" clip-rule="evenodd" d="M28.2225 35.7196C28.5096 35.4391 28.5096 34.9667 28.2225 34.6863C28.2225 34.6863 22.7376 29.3136 22.7074 29.3136C22.5563 29.166 22.4807 28.9889 22.4807 28.797C22.4959 28.6051 22.5714 28.428 22.7074 28.2804L33.9793 17.2694C34.1305 17.1218 34.2212 16.9446 34.2212 16.7232C34.2212 16.3247 33.8887 16 33.4807 16H22.511C22.3145 16 22.1181 16.0886 21.9821 16.2214L10.6195 27.321C10.2418 27.7048 10 28.2214 10 28.797C10 29.3727 10.2266 29.8745 10.6044 30.2583L21.6799 41.0774C21.967 41.3578 22.4505 41.3578 22.7376 41.0774L28.2225 35.7196ZM35.7775 28.2805C35.4904 28.5609 35.4904 29.0333 35.7775 29.3137L41.2925 34.6864C41.4286 34.834 41.5041 35.0111 41.5041 35.2029C41.5041 35.3949 41.4436 35.5868 41.2925 35.7196L30.0207 46.7306C29.8695 46.8634 29.7788 47.0554 29.7788 47.2768C29.7788 47.6753 30.1112 48 30.5192 48H41.489C41.6854 48 41.8818 47.9114 42.0178 47.7786L53.3804 36.679C53.7582 36.2953 54 35.7786 54 35.2029C54 34.6273 53.7582 34.1255 53.3956 33.7417L42.32 22.9226C42.033 22.6421 41.5495 22.6421 41.2624 22.9226L35.7775 28.2805Z" fill="#191B1B"/>
</svg>
