<svg width="64" height="64" viewBox="0 0 64 64" fill="none" xmlns="http://www.w3.org/2000/svg">
<path d="M44.9646 10.4712H19.036C14.3885 10.4712 10.6289 14.2661 10.6289 18.9373V45.0623C10.6289 49.7335 14.3885 53.5283 19.036 53.5283H44.9646C49.6123 53.5283 53.3718 49.7335 53.3718 45.0623V18.9373C53.3718 14.2661 49.6123 10.4712 44.9646 10.4712Z" fill="black"/>
<path d="M52.7429 18.9374C52.7429 14.6088 49.2602 11.0999 44.9643 11.0999H19.0357C14.7398 11.0999 11.2571 14.6088 11.2571 18.9374V45.0624C11.2571 49.3911 14.7398 52.8999 19.0357 52.8999H44.9643C49.2602 52.8999 52.7429 49.3911 52.7429 45.0624V18.9374ZM54 45.0624C54 50.0762 49.9637 54.1571 44.9643 54.1571H19.0357C14.0364 54.1571 10 50.0762 10 45.0624V18.9374C10 13.9237 14.0364 9.84277 19.0357 9.84277H44.9643C49.9637 9.84277 54 13.9237 54 18.9374V45.0624Z" fill="url(#paint0_linear_212_37999)"/>
<mask id="mask0_212_37999" style="mask-type:luminance" maskUnits="userSpaceOnUse" x="19" y="27" width="26" height="10">
<path d="M44.4145 27.7568H19.5859V36.2426H44.4145V27.7568Z" fill="white"/>
</mask>
<g mask="url(#mask0_212_37999)">
<path fill-rule="evenodd" clip-rule="evenodd" d="M35.093 29.4035C35.5696 29.4035 35.9719 29.0701 35.9719 28.5801C35.9719 28.1307 35.5896 27.7568 35.093 27.7568C34.5765 27.7568 34.2141 28.1205 34.2141 28.5801C34.2141 29.0853 34.5964 29.4035 35.093 29.4035ZM22.3758 36.2426C23.7165 36.2426 24.8388 35.6415 24.8388 34.2929C24.8388 33.1816 23.8754 32.7321 22.5049 32.4644C22.4453 32.4543 22.3807 32.4391 22.3112 32.429C22.2467 32.4189 22.1771 32.4037 22.1076 32.3886L22.0679 32.3786C21.6111 32.2825 21.1343 32.126 21.1343 31.7018C21.1343 31.2622 21.6111 31.0905 22.0629 31.0905C22.6985 31.0905 23.1852 31.3783 23.3292 32.0097L24.5954 31.6562C24.2677 30.5046 23.2597 29.949 22.0679 29.949C20.8513 29.949 19.7638 30.4743 19.7638 31.7572C19.7638 32.9998 20.7421 33.3029 21.77 33.5201L21.8345 33.5351L21.8991 33.5504C21.9338 33.5554 21.9636 33.5655 21.9984 33.5705C22.7482 33.7322 23.4136 33.9443 23.4136 34.404C23.4136 34.9293 22.8525 35.1011 22.3559 35.1011C21.6607 35.1011 21.1194 34.7676 20.9208 34.0958L19.5801 34.4596C19.9227 35.7273 21.1691 36.2426 22.3758 36.2426ZM35.7981 30.0804V36.2022H34.373V30.0804H35.7981ZM31.5226 36.2426C31.9248 36.2375 32.6647 36.0809 33.0123 35.0454C33.1812 34.5101 33.2258 34.0403 33.2557 33.1816C33.2557 33.1614 33.2557 33.1412 33.2606 33.1261L33.2656 33.0705C33.2656 33.0401 33.2706 33.015 33.2706 32.9847L33.2755 32.929C33.3251 32.1715 33.4196 31.4844 33.6826 31.4844V30.0804C33.2606 30.0804 32.4909 30.2419 32.1285 31.3229C31.9596 31.8583 31.9198 32.52 31.8752 33.1564V33.1868V33.2221V33.2575C31.8653 33.419 31.8554 33.6261 31.8354 33.8332L31.8306 33.8837L31.8255 33.9343C31.7809 34.404 31.6915 34.8586 31.5177 34.8586C31.3538 34.8586 31.2545 34.4697 31.1949 34.0353L31.1899 33.9847C31.185 33.9443 31.18 33.8989 31.175 33.8585L31.1701 33.8079L31.1651 33.7575C31.1453 33.5454 31.1303 33.3433 31.1204 33.1868C31.0906 32.5554 31.0459 31.8482 30.8671 31.3128C30.5195 30.2419 29.7597 30.0804 29.3376 30.0804C28.9156 30.0804 28.1757 30.2419 27.8281 31.3128C27.6594 31.8482 27.6146 32.5554 27.5849 33.1868C27.5748 33.3433 27.5649 33.5454 27.5401 33.7575L27.5352 33.8079C27.4805 34.3232 27.3812 34.8586 27.1826 34.8586C26.984 34.8586 26.8598 34.3586 26.7952 33.8787L26.7904 33.8282L26.7853 33.7776C26.7555 33.5504 26.7407 33.3382 26.7357 33.1918C26.7058 32.2926 26.681 31.3179 26.681 30.0904H25.2956V30.4187C25.2956 31.4744 25.3006 32.2422 25.3502 33.1968C25.3949 34.0301 25.5191 34.6615 25.6482 35.0354C25.9113 35.8486 26.4428 36.2576 27.1925 36.2576C27.9325 36.2576 28.5134 35.7879 28.727 35.0354C28.876 34.4797 28.9404 33.8383 28.9702 33.1968C28.9753 33.1412 28.9801 33.0807 28.9852 33.015C28.9951 32.8583 29.01 32.6765 29.0298 32.4897L29.0348 32.4391C29.0845 31.9643 29.1739 31.4946 29.3526 31.4946C29.5264 31.4946 29.6208 31.9189 29.6705 32.3633L29.6753 32.4139C29.6753 32.429 29.6804 32.4493 29.6804 32.4644L29.6852 32.515C29.7052 32.7321 29.7201 32.9443 29.73 33.1109C29.73 33.1412 29.7349 33.1665 29.7349 33.1968V33.2018C29.7648 33.8433 29.7995 34.4898 29.9783 35.0354C30.3259 36.1061 31.1105 36.2576 31.5326 36.2576L31.5226 36.2426ZM37.9235 33.0857C37.9235 34.0707 38.1221 34.6919 38.6336 35.3839L37.4765 36.2426C36.7912 35.303 36.4933 34.3787 36.4933 33.0857V27.9185H37.9184V33.0857H37.9235ZM41.5533 36.2426C42.914 36.2426 43.8127 35.4293 44.1952 34.4544L42.8841 34.1009C42.6855 34.6262 42.2287 34.9546 41.5832 34.9546C40.7787 34.9546 40.0736 34.3333 40.0289 33.3686H44.3938C44.5626 31.5401 43.5049 29.944 41.5434 29.944C39.7905 29.944 38.6187 31.3128 38.6187 33.0807C38.6187 34.8283 39.7905 36.2426 41.5533 36.2426ZM41.5285 31.136C40.7985 31.136 40.1877 31.6057 40.0488 32.2926H43.0083C42.9041 31.6714 42.3131 31.136 41.5285 31.136Z" fill="white"/>
</g>
<defs>
<linearGradient id="paint0_linear_212_37999" x1="14.4786" y1="13.5356" x2="50.15" y2="50.6213" gradientUnits="userSpaceOnUse">
<stop stop-color="#A51CF1"/>
<stop offset="0.119792" stop-color="#336DFF"/>
<stop offset="0.244792" stop-color="#31BBFD"/>
<stop offset="0.364583" stop-color="#3CEAFF"/>
<stop offset="0.489583" stop-color="#00EAB2"/>
<stop offset="0.614583" stop-color="#B0E836"/>
<stop offset="0.739583" stop-color="#FFDA19"/>
<stop offset="0.875" stop-color="#FF8D40"/>
<stop offset="1" stop-color="#FF2055"/>
</linearGradient>
</defs>
</svg>
