<svg width="64" height="64" viewBox="0 0 64 64" fill="none" xmlns="http://www.w3.org/2000/svg">
<path d="M19.5904 56.3776C18.7876 56.9615 18.2402 57.4724 17.8023 57.4724H16.6345C16.3061 57.3994 15.9777 57.2534 15.6127 57.0709C14.9559 56.7425 14.372 56.3776 13.8246 55.9397C13.2772 55.5018 12.8393 55.0639 12.5109 54.626C12.146 54.188 12 53.8596 12 53.7136C12 52.7648 12.3649 51.3052 13.0583 49.2981C13.7516 47.291 14.7004 45.0285 15.8682 42.5105C17.0359 39.9926 18.3497 37.3286 19.8093 34.5187C21.269 31.7088 22.7652 29.0449 24.3344 26.5269C25.9036 24.0089 27.3997 21.7099 28.8594 19.7393C30.3191 17.7323 34.1143 15.1778 32.7276 15.2508C29.8447 15.3603 27.1078 15.6157 24.5898 15.9441C22.0719 16.3091 19.9553 16.82 18.3132 17.4403C17.4009 17.8052 16.7075 17.7323 16.2696 17.2579C15.7952 16.7835 15.5033 16.1631 15.3938 15.3968C15.2478 14.6304 15.2843 13.8641 15.4303 13.0977C15.5762 12.3314 15.8317 11.8935 16.1601 11.6745C17.2914 10.9082 18.97 10.2148 21.1596 9.55799C23.3491 8.90113 25.7941 8.35375 28.458 7.87935C31.122 7.40495 33.8589 7.00353 36.6323 6.6751C39.4057 6.34667 42.0331 6.12772 44.4051 6.05474C46.7771 5.98175 48.7842 5.98175 50.3899 6.05474C51.9955 6.12772 52.9808 6.34667 53.3093 6.7116C53.6742 7.18599 53.8931 7.95234 53.9296 8.97412C53.9661 9.9959 53.8566 11.0542 53.6377 12.1124C53.4187 13.1707 53.1268 14.083 52.7254 14.8494C52.324 15.6157 51.8496 15.9806 51.3022 15.9077C49.2586 15.6157 46.9596 15.3968 44.4416 15.2508C41.9237 15.1048 34.2968 13.4992 36.6323 15.1048C37.0702 15.3968 37.4716 15.7617 37.873 16.1631C38.2744 16.5645 38.6029 17.0024 38.8218 17.4403C39.0773 17.8782 39.2232 18.3161 39.2597 18.7176C39.2962 19.119 39.2232 19.5204 38.9313 19.8488C35.6835 23.6805 32.9466 27.5122 30.6111 31.3074C28.2756 35.1026 26.4145 38.4964 25.0642 41.5252C23.6775 44.5176 22.8747 46.9261 22.5828 48.7142C22.2908 50.5023 22.6557 51.2687 23.6775 50.9767C24.6993 50.6848 25.0277 50.8673 24.6263 51.4876C24.2614 52.1445 23.6045 52.9108 22.6557 53.8231C21.7069 54.7354 20.6852 55.6113 19.5904 56.3776Z" fill="#F43F85"/>
</svg>
