<svg width="64" height="64" viewBox="0 0 64 64" fill="none" xmlns="http://www.w3.org/2000/svg">
<path d="M52.3006 19.9221C48.905 11.3359 41.2406 6 32.2665 6C23.2923 6 15.6279 11.3359 12.2323 19.9221C11.9412 20.6982 11.9897 21.4744 12.4263 22.105C12.9114 22.7841 13.7361 23.2207 14.6578 23.2207C15.8219 23.2207 16.7921 22.59 17.1802 21.5228C19.6542 15.1197 25.4267 11.1419 32.218 11.1419C39.0091 11.1419 44.7818 15.1197 47.3527 21.5228C47.7893 22.59 48.711 23.2207 49.8752 23.2207C50.7969 23.2207 51.6215 22.7841 52.1066 22.105C52.5432 21.4744 52.5917 20.6982 52.3006 19.9221Z" fill="#F18921"/>
<path d="M45.6568 56.9816C45.4627 57.6122 44.9777 58.0002 44.1045 58.0002H39.2536C38.4775 58.0002 38.0409 57.7577 37.8469 56.9816L33.2385 39.7125C32.7534 37.9661 32.5594 35.9287 32.3168 33.8913C32.1228 35.9287 31.8317 38.0146 31.3951 39.7125L26.7869 56.9816C26.6413 57.6122 26.1077 58.0002 25.2346 58.0002H20.2382C19.4135 58.0002 19.0254 57.7577 18.8313 56.9816L12.0402 32.1935C11.8462 31.3689 12.3797 30.8352 13.1074 30.8352H16.2604C17.1335 30.8352 17.6187 31.1263 17.8127 31.951L22.0814 49.6568C22.5665 51.6941 22.6636 53.78 22.9062 55.6718C23.2457 53.8285 23.4882 51.5971 24.0218 49.7052L28.7756 31.854C28.9698 31.1263 29.6004 30.7868 30.3765 30.7868H34.2572C35.0818 30.7868 35.7124 31.1749 35.955 31.9025L40.7574 49.6568C41.291 51.5971 41.582 53.7315 41.8246 55.6233C42.0671 53.78 42.3582 51.5486 42.7463 49.6568L46.6755 31.8055C46.821 31.0778 47.4516 30.7383 48.2762 30.7383H51.2353C51.9629 30.7383 52.4965 31.1749 52.3025 32.048L45.6568 56.9816Z" fill="#005CB9"/>
</svg>
