<svg width="64" height="64" viewBox="0 0 64 64" fill="none" xmlns="http://www.w3.org/2000/svg">
<rect x="6" y="6" width="52" height="52" rx="4" fill="#00766A"/>
<path d="M37.9993 32.9134C39.3408 30.766 40.0248 28.8548 39.9993 27.3781C39.9679 25.5652 39.1728 24.2149 37.9993 23.3201C34.4721 20.632 27.5246 22.067 27.6176 27.4618C27.6524 29.4985 28.7432 32.1344 31.5781 35.3117C31.5781 35.3117 33.1581 34.0295 33.5057 32.878C25.9794 23.6012 41.7996 23.0964 33.9277 33.381C33.9277 33.381 33.0185 34.7232 31.8592 35.6228C29.4054 37.7218 27.1832 38.3847 25.2449 38.0959C18.5165 37.0958 17.4434 27.9906 16.9445 22.5769H12.0041C12.0022 22.6366 12.0016 22.6977 12 22.758V23.7707C12.2584 34.513 20.6411 49.4573 34.0382 37.7029C35.3658 36.4971 36.1203 35.5367 36.1203 35.5367C36.8453 34.6339 37.4727 33.7556 37.9993 32.9134Z" fill="white"/>
<path d="M48.6825 28C48.6424 28.151 48.6122 28.3105 48.591 28.4796C47.7416 35.4121 43.9508 41.2697 38.2344 38.0444C38.1214 38.2105 38.0026 38.3717 37.8809 38.528C37.309 39.2571 36.6522 39.8751 36.0507 40.3652C36.0358 40.3557 36.0184 40.3478 36 40.3428C36.6291 40.7601 37.257 41.0934 37.8809 41.3485C44.9384 44.2392 51.3793 37.0928 52 28.1579L48.6825 28Z" fill="white"/>
</svg>
